<svg xmlns="http://www.w3.org/2000/svg" xmlns:xlink="http://www.w3.org/1999/xlink" width="500" zoomAndPan="magnify" viewBox="0 0 375 374.999991" height="500" preserveAspectRatio="xMidYMid meet" version="1.2"><defs/><g id="0eda6848a2"><g style="fill:#f4f4f4;fill-opacity:1;"><g transform="translate(66.345703, 196.596184)"><path style="stroke:none" d="M 17.03125 -60.5 C 21.75 -60.5 25.113281 -59.390625 27.125 -57.171875 C 29.144531 -54.953125 30.15625 -51.59375 30.15625 -47.09375 L 30.15625 -44.25 C 30.15625 -41.019531 29.632812 -38.410156 28.59375 -36.421875 C 27.5625 -34.429688 25.722656 -33.035156 23.078125 -32.234375 C 26.015625 -31.429688 28.101562 -29.90625 29.34375 -27.65625 C 30.582031 -25.40625 31.203125 -22.609375 31.203125 -19.265625 L 31.203125 -14.171875 C 31.203125 -9.617188 30.078125 -6.117188 27.828125 -3.671875 C 25.578125 -1.222656 22.09375 0 17.375 0 L 3.453125 0 L 3.453125 -60.5 Z M 15.390625 -34.828125 C 18.085938 -34.828125 20.113281 -35.375 21.46875 -36.46875 C 22.820312 -37.5625 23.5 -39.691406 23.5 -42.859375 L 23.5 -46.40625 C 23.5 -49.113281 22.992188 -51.113281 21.984375 -52.40625 C 20.984375 -53.707031 19.273438 -54.359375 16.859375 -54.359375 L 10.203125 -54.359375 L 10.203125 -34.828125 Z M 17.375 -6.140625 C 22.15625 -6.140625 24.546875 -8.875 24.546875 -14.34375 L 24.546875 -19.703125 C 24.546875 -23.097656 23.867188 -25.441406 22.515625 -26.734375 C 21.160156 -28.035156 19.015625 -28.6875 16.078125 -28.6875 L 10.203125 -28.6875 L 10.203125 -6.140625 Z M 17.375 -6.140625 "/></g></g><g style="fill:#f4f4f4;fill-opacity:1;"><g transform="translate(100.219984, 196.596184)"><path style="stroke:none" d="M 16.9375 -60.5 C 21.71875 -60.5 25.160156 -59.316406 27.265625 -56.953125 C 29.367188 -54.585938 30.421875 -51.160156 30.421875 -46.671875 L 30.421875 -41.734375 C 30.421875 -38.398438 29.816406 -35.691406 28.609375 -33.609375 C 27.398438 -31.535156 25.5 -30.097656 22.90625 -29.296875 C 25.664062 -28.492188 27.617188 -27.007812 28.765625 -24.84375 C 29.921875 -22.6875 30.5 -19.960938 30.5 -16.671875 L 30.5 -7.265625 C 30.5 -5.929688 30.554688 -4.644531 30.671875 -3.40625 C 30.796875 -2.175781 31.144531 -1.039062 31.71875 0 L 24.890625 0 C 24.484375 -0.863281 24.191406 -1.800781 24.015625 -2.8125 C 23.847656 -3.820312 23.765625 -5.332031 23.765625 -7.34375 L 23.765625 -16.859375 C 23.765625 -20.253906 23 -22.597656 21.46875 -23.890625 C 19.945312 -25.191406 17.773438 -25.84375 14.953125 -25.84375 L 10.203125 -25.84375 L 10.203125 0 L 3.453125 0 L 3.453125 -60.5 Z M 15.203125 -31.96875 C 17.910156 -31.96875 20.015625 -32.53125 21.515625 -33.65625 C 23.015625 -34.78125 23.765625 -36.984375 23.765625 -40.265625 L 23.765625 -46.0625 C 23.765625 -48.832031 23.226562 -50.90625 22.15625 -52.28125 C 21.09375 -53.664062 19.296875 -54.359375 16.765625 -54.359375 L 10.203125 -54.359375 L 10.203125 -31.96875 Z M 15.203125 -31.96875 "/></g></g><g style="fill:#f4f4f4;fill-opacity:1;"><g transform="translate(134.267093, 196.596184)"><path style="stroke:none" d="M 10.28125 -12.1875 L 7.953125 0 L 1.734375 0 L 13.3125 -60.5 L 23.078125 -60.5 L 34.65625 0 L 27.921875 0 L 25.578125 -12.1875 Z M 11.140625 -17.96875 L 24.625 -17.96875 L 17.796875 -52.890625 Z M 11.140625 -17.96875 "/></g></g><g style="fill:#f4f4f4;fill-opacity:1;"><g transform="translate(168.573423, 196.596184)"><path style="stroke:none" d="M 8.5625 -60.5 L 18.40625 -7.859375 L 28.171875 -60.5 L 34.390625 -60.5 L 23.078125 0 L 13.140625 0 L 1.734375 -60.5 Z M 8.5625 -60.5 "/></g></g><g style="fill:#f4f4f4;fill-opacity:1;"><g transform="translate(204.694465, 196.596184)"><path style="stroke:none" d="M 9.859375 -14.265625 C 9.859375 -11.492188 10.414062 -9.34375 11.53125 -7.8125 C 12.65625 -6.289062 14.457031 -5.53125 16.9375 -5.53125 C 19.351562 -5.53125 21.125 -6.289062 22.25 -7.8125 C 23.375 -9.34375 23.9375 -11.492188 23.9375 -14.265625 L 23.9375 -60.5 L 30.25 -60.5 L 30.25 -14.609375 C 30.25 -9.992188 29.148438 -6.289062 26.953125 -3.5 C 24.765625 -0.707031 21.335938 0.6875 16.671875 0.6875 C 12.066406 0.6875 8.671875 -0.707031 6.484375 -3.5 C 4.296875 -6.289062 3.203125 -9.992188 3.203125 -14.609375 L 3.203125 -60.5 L 9.859375 -60.5 Z M 9.859375 -14.265625 "/></g></g><g style="fill:#f4f4f4;fill-opacity:1;"><g transform="translate(238.136674, 196.596184)"><path style="stroke:none" d="M 16.9375 -60.5 C 21.71875 -60.5 25.160156 -59.316406 27.265625 -56.953125 C 29.367188 -54.585938 30.421875 -51.160156 30.421875 -46.671875 L 30.421875 -41.734375 C 30.421875 -38.398438 29.816406 -35.691406 28.609375 -33.609375 C 27.398438 -31.535156 25.5 -30.097656 22.90625 -29.296875 C 25.664062 -28.492188 27.617188 -27.007812 28.765625 -24.84375 C 29.921875 -22.6875 30.5 -19.960938 30.5 -16.671875 L 30.5 -7.265625 C 30.5 -5.929688 30.554688 -4.644531 30.671875 -3.40625 C 30.796875 -2.175781 31.144531 -1.039062 31.71875 0 L 24.890625 0 C 24.484375 -0.863281 24.191406 -1.800781 24.015625 -2.8125 C 23.847656 -3.820312 23.765625 -5.332031 23.765625 -7.34375 L 23.765625 -16.859375 C 23.765625 -20.253906 23 -22.597656 21.46875 -23.890625 C 19.945312 -25.191406 17.773438 -25.84375 14.953125 -25.84375 L 10.203125 -25.84375 L 10.203125 0 L 3.453125 0 L 3.453125 -60.5 Z M 15.203125 -31.96875 C 17.910156 -31.96875 20.015625 -32.53125 21.515625 -33.65625 C 23.015625 -34.78125 23.765625 -36.984375 23.765625 -40.265625 L 23.765625 -46.0625 C 23.765625 -48.832031 23.226562 -50.90625 22.15625 -52.28125 C 21.09375 -53.664062 19.296875 -54.359375 16.765625 -54.359375 L 10.203125 -54.359375 L 10.203125 -31.96875 Z M 15.203125 -31.96875 "/></g></g><g style="fill:#f4f4f4;fill-opacity:1;"><g transform="translate(272.183794, 196.596184)"><path style="stroke:none" d="M 10.28125 -12.1875 L 7.953125 0 L 1.734375 0 L 13.3125 -60.5 L 23.078125 -60.5 L 34.65625 0 L 27.921875 0 L 25.578125 -12.1875 Z M 11.140625 -17.96875 L 24.625 -17.96875 L 17.796875 -52.890625 Z M 11.140625 -17.96875 "/></g></g><g style="fill:#d72638;fill-opacity:1;"><g transform="translate(66.834009, 235.383133)"><path style="stroke:none" d="M 1.03125 -20.96875 C 1.03125 -23.207031 1.5625 -24.921875 2.625 -26.109375 C 3.6875 -27.304688 5.28125 -27.90625 7.40625 -27.90625 C 9.539062 -27.90625 11.140625 -27.304688 12.203125 -26.109375 C 13.265625 -24.921875 13.796875 -23.207031 13.796875 -20.96875 L 13.796875 -20.109375 L 9.703125 -20.109375 L 9.703125 -21.25 C 9.703125 -22.25 9.507812 -22.953125 9.125 -23.359375 C 8.738281 -23.765625 8.207031 -23.96875 7.53125 -23.96875 C 6.84375 -23.96875 6.304688 -23.765625 5.921875 -23.359375 C 5.546875 -22.953125 5.359375 -22.25 5.359375 -21.25 C 5.359375 -20.300781 5.566406 -19.460938 5.984375 -18.734375 C 6.410156 -18.015625 6.9375 -17.332031 7.5625 -16.6875 C 8.195312 -16.050781 8.875 -15.410156 9.59375 -14.765625 C 10.320312 -14.117188 11 -13.414062 11.625 -12.65625 C 12.257812 -11.894531 12.785156 -11.023438 13.203125 -10.046875 C 13.628906 -9.078125 13.84375 -7.9375 13.84375 -6.625 C 13.84375 -4.382812 13.296875 -2.664062 12.203125 -1.46875 C 11.109375 -0.28125 9.5 0.3125 7.375 0.3125 C 5.238281 0.3125 3.625 -0.28125 2.53125 -1.46875 C 1.445312 -2.664062 0.90625 -4.382812 0.90625 -6.625 L 0.90625 -8.3125 L 5 -8.3125 L 5 -6.34375 C 5 -5.34375 5.203125 -4.644531 5.609375 -4.25 C 6.023438 -3.863281 6.570312 -3.671875 7.25 -3.671875 C 7.9375 -3.671875 8.484375 -3.863281 8.890625 -4.25 C 9.296875 -4.644531 9.5 -5.34375 9.5 -6.34375 C 9.5 -7.289062 9.285156 -8.125 8.859375 -8.84375 C 8.441406 -9.570312 7.914062 -10.253906 7.28125 -10.890625 C 6.65625 -11.535156 5.976562 -12.179688 5.25 -12.828125 C 4.53125 -13.472656 3.851562 -14.175781 3.21875 -14.9375 C 2.59375 -15.695312 2.070312 -16.5625 1.65625 -17.53125 C 1.238281 -18.507812 1.03125 -19.65625 1.03125 -20.96875 Z M 1.03125 -20.96875 "/></g></g><g style="fill:#d72638;fill-opacity:1;"><g transform="translate(113.112551, 235.383133)"><path style="stroke:none" d="M 0.3125 -27.59375 L 13.71875 -27.59375 L 13.71875 -23.65625 L 9.1875 -23.65625 L 9.1875 0 L 4.84375 0 L 4.84375 -23.65625 L 0.3125 -23.65625 Z M 0.3125 -27.59375 "/></g></g><g style="fill:#d72638;fill-opacity:1;"><g transform="translate(158.681709, 235.383133)"><path style="stroke:none" d="M 5.71875 -27.59375 L 5.71875 -6.3125 C 5.71875 -5.3125 5.921875 -4.613281 6.328125 -4.21875 C 6.734375 -3.820312 7.28125 -3.625 7.96875 -3.625 C 8.644531 -3.625 9.1875 -3.820312 9.59375 -4.21875 C 10 -4.613281 10.203125 -5.3125 10.203125 -6.3125 L 10.203125 -27.59375 L 14.3125 -27.59375 L 14.3125 -6.578125 C 14.3125 -4.347656 13.765625 -2.632812 12.671875 -1.4375 C 11.578125 -0.238281 9.96875 0.359375 7.84375 0.359375 C 5.71875 0.359375 4.109375 -0.238281 3.015625 -1.4375 C 1.921875 -2.632812 1.375 -4.347656 1.375 -6.578125 L 1.375 -27.59375 Z M 5.71875 -27.59375 "/></g></g><g style="fill:#d72638;fill-opacity:1;"><g transform="translate(205.906094, 235.383133)"><path style="stroke:none" d="M 1.578125 -27.59375 L 8.4375 -27.59375 C 10.613281 -27.59375 12.234375 -27.015625 13.296875 -25.859375 C 14.367188 -24.703125 14.90625 -23.007812 14.90625 -20.78125 L 14.90625 -6.8125 C 14.90625 -4.582031 14.367188 -2.890625 13.296875 -1.734375 C 12.234375 -0.578125 10.613281 0 8.4375 0 L 1.578125 0 Z M 5.90625 -23.65625 L 5.90625 -3.9375 L 8.359375 -3.9375 C 9.035156 -3.9375 9.570312 -4.132812 9.96875 -4.53125 C 10.363281 -4.925781 10.5625 -5.625 10.5625 -6.625 L 10.5625 -20.96875 C 10.5625 -21.96875 10.363281 -22.664062 9.96875 -23.0625 C 9.570312 -23.457031 9.035156 -23.65625 8.359375 -23.65625 Z M 5.90625 -23.65625 "/></g></g><g style="fill:#d72638;fill-opacity:1;"><g transform="translate(253.52458, 235.383133)"><path style="stroke:none" d="M 1.578125 -27.59375 L 5.90625 -27.59375 L 5.90625 0 L 1.578125 0 Z M 1.578125 -27.59375 "/></g></g><g style="fill:#d72638;fill-opacity:1;"><g transform="translate(292.551631, 235.383133)"><path style="stroke:none" d="M 5.5625 -6.34375 C 5.5625 -5.34375 5.765625 -4.640625 6.171875 -4.234375 C 6.578125 -3.828125 7.125 -3.625 7.8125 -3.625 C 8.488281 -3.625 9.03125 -3.828125 9.4375 -4.234375 C 9.84375 -4.640625 10.046875 -5.34375 10.046875 -6.34375 L 10.046875 -21.25 C 10.046875 -22.25 9.84375 -22.953125 9.4375 -23.359375 C 9.03125 -23.765625 8.488281 -23.96875 7.8125 -23.96875 C 7.125 -23.96875 6.578125 -23.765625 6.171875 -23.359375 C 5.765625 -22.953125 5.5625 -22.25 5.5625 -21.25 Z M 1.21875 -20.96875 C 1.21875 -23.207031 1.78125 -24.921875 2.90625 -26.109375 C 4.039062 -27.304688 5.675781 -27.90625 7.8125 -27.90625 C 9.9375 -27.90625 11.5625 -27.304688 12.6875 -26.109375 C 13.820312 -24.921875 14.390625 -23.207031 14.390625 -20.96875 L 14.390625 -6.625 C 14.390625 -4.382812 13.820312 -2.664062 12.6875 -1.46875 C 11.5625 -0.28125 9.9375 0.3125 7.8125 0.3125 C 5.675781 0.3125 4.039062 -0.28125 2.90625 -1.46875 C 1.78125 -2.664062 1.21875 -4.382812 1.21875 -6.625 Z M 1.21875 -20.96875 "/></g></g><path style="fill:none;stroke-width:1;stroke-linecap:butt;stroke-linejoin:miter;stroke:#ffffff;stroke-opacity:1;stroke-miterlimit:4;" d="M -0.000232859 0.498601 L 340.260584 0.498966 " transform="matrix(0.749448,0.00110129,-0.00110129,0.749448,57.555411,202.575543)"/></g></svg>